<?xml version="1.0" encoding="UTF-8"?><svg id="Layer_2" xmlns="http://www.w3.org/2000/svg" viewBox="0 0 537.11 59.26"><defs><style>.cls-1{stroke:#000;stroke-miterlimit:10;}</style></defs><g id="Layer_1-2"><g id="logo._oke-studio"><path class="cls-1" d="m28.22,15.99c13.54,0,26.5,7.42,26.5,21.46s-13.32,21.31-26.93,21.31S.5,51.2.5,37.44,14.4,15.99,28.22,15.99Zm-13.9,21.46c0,7.92,5.47,14.26,13.32,14.26s13.25-6.34,13.25-14.26-4.61-13.83-13.25-13.83-13.32,6.84-13.32,13.83Z"/><path class="cls-1" d="m61.77,1.51h13.25v32.83l20.38-17.35h16.71l-18.79,16.35,17.79,24.34h-12.75l-12.96-18.22-10.37,8.93v9.22h-13.25V1.51Z"/><path class="cls-1" d="m114.26,37.88c0-12.67,12.75-20.81,27.65-20.81,13.68,0,26.43,6.7,26.5,20.95,0,1.15-.14,2.38-.43,3.46-4.03,0-34.85.14-39.46.14.22,5.54,5.4,10.15,12.89,10.15,5.18,0,10.23-1.87,13.54-5.47l10.37,1.73c-3.6,6.41-12.82,10.51-23.76,10.51-14.91,0-27.29-8.07-27.29-20.67Zm14.04-1.44l26.07-.07c0-7.13-5.33-12.1-12.96-12.1-8.42,0-13.18,6.19-13.1,12.17Z"/><path class="cls-1" d="m219.74,29.16v10.01h-45.22v-10.01h45.22Z"/><path class="cls-1" d="m253.36,16.13c12.82,0,25.85,2.95,25.85,14.19h-12.96c0-5.18-6.05-5.91-12.89-5.91-8.14,0-14.33,1.01-14.33,5.54,0,9.07,40.47-2.3,40.47,15.48,0,8.71-13.25,13.03-26.21,13.03-24.12,0-27.36-8.71-27.36-13.61h13.75c0,5.04,6.91,5.47,13.25,5.47,8.21,0,14.04-1.66,14.04-4.9,0-9.79-41.55,2.74-41.55-16.2,0-8.5,11.81-13.11,27.94-13.11Z"/><path class="cls-1" d="m283.31,17.21h9.5l.07-11.52,13.39-4.97-.14,16.49h15.84l-2.95,8.5h-13.18v15.48c0,4.46,1.66,7.99,7.13,7.99h12.1v8.42h-16.35c-10.08,0-16.13-7.63-16.13-16.99v-14.91h-9.5l.22-8.5Z"/><path class="cls-1" d="m343.15,17.14l-.07,22.61c0,6.91,5.04,11.74,12.24,11.74,11.52,0,16.92-9.79,16.92-13.68l.07-20.67h13.25v40.54h-13.25v-8.71c-3.02,4.54-9.86,9.22-19.87,9.22s-22.32-5.62-22.32-18.43v-22.61h13.03Z"/><path class="cls-1" d="m417.52,18.36c7.99,0,17.79,4.54,21.89,9.29V1.44h13.32v56.17h-13.32v-8.57c-4.9,6.62-13.03,9.22-21.03,9.22-14.98,0-26.14-9.36-26.14-20.23,0-12.38,11.16-19.66,25.27-19.66Zm5.18,32.47c9.72,0,16.71-7.49,16.71-12.17,0-5.98-7.27-13.11-18.29-13.11-9.72,0-15.48,4.68-15.48,12.46,0,8.79,7.71,12.82,17.07,12.82Z"/><path class="cls-1" d="m462.66,15.55V1.59h13.32v13.97h-13.32Zm0,42.05V21.6h13.32v36h-13.32Z"/><path class="cls-1" d="m510.11,15.99c13.54,0,26.5,7.42,26.5,21.46s-13.32,21.31-26.93,21.31-27.29-7.56-27.29-21.31,13.9-21.46,27.72-21.46Zm-13.9,21.46c0,7.92,5.47,14.26,13.32,14.26s13.25-6.34,13.25-14.26-4.61-13.83-13.25-13.83-13.32,6.84-13.32,13.83Z"/></g></g></svg>